<svg width="77" height="14" viewBox="0 0 77 14" fill="none" xmlns="http://www.w3.org/2000/svg">
<g id="Frame" clip-path="url(#clip0_1745_21544)">
<g id="surface1_1_">
<path id="Vector" d="M13.8535 0L11.4184 4.31864H24.6546C25.3223 4.31864 25.3223 4.65085 24.9688 5.22034C24.6546 5.78983 24.0654 6.8339 23.7512 7.40339C23.5941 7.68814 23.2799 8.25763 24.3011 8.25763H29.7212C29.7212 8.25763 30.5853 6.69153 31.3316 5.41017C32.3528 3.65424 31.4494 0 27.8752 0" fill="#D71534"/>
<g id="Group">
<g id="Clip path group">
<mask id="mask0_1745_21544" style="mask-type:luminance" maskUnits="userSpaceOnUse" x="10" y="5" width="20" height="10">
<g id="SVGID_2_">
<path id="Vector_2" d="M29.1713 5.22021H10.3186V14.0473H29.1713V5.22021Z" fill="white"/>
</g>
</mask>
<g mask="url(#mask0_1745_21544)">
<g id="Group_2">
<path id="Vector_3" d="M10.4757 14.0001L15.346 5.36279H21.3946C22.0623 5.36279 22.0623 5.695 21.7088 6.26449C21.3946 6.83398 20.8054 7.87805 20.4912 8.44754C20.3341 8.73228 20.0199 9.30178 21.0411 9.30178H29.132C28.4643 10.4882 26.2649 14.0001 22.3372 14.0001" fill="#D71534"/>
</g>
</g>
</g>
</g>
<g id="Group_3">
<g id="Clip path group_2">
<mask id="mask1_1745_21544" style="mask-type:luminance" maskUnits="userSpaceOnUse" x="28" y="9" width="11" height="6">
<g id="SVGID_4_">
<path id="Vector_4" d="M38.5977 9.01709H28.3858V14.0476H38.5977V9.01709Z" fill="white"/>
</g>
</mask>
<g mask="url(#mask1_1745_21544)">
<g id="Group_4">
<path id="Vector_5" d="M38.4013 9.34912L35.7698 14.0474H28.7786L31.4101 9.34912" fill="#D71534"/>
</g>
</g>
</g>
</g>
<path id="Vector_6" d="M49.0845 8.25763H31.9993L36.6732 0H43.6644L40.9936 4.74576H44.0964L46.7672 0H53.7584" fill="#D71534"/>
<g id="Group_5">
<g id="Clip path group_3">
<mask id="mask2_1745_21544" style="mask-type:luminance" maskUnits="userSpaceOnUse" x="38" y="9" width="11" height="6">
<g id="SVGID_6_">
<path id="Vector_7" d="M48.8096 9.01709H38.5977V14.0476H48.8096V9.01709Z" fill="white"/>
</g>
</mask>
<g mask="url(#mask2_1745_21544)">
<g id="Group_6">
<path id="Vector_8" d="M48.4954 9.34912L45.8639 14.0474H38.8727L41.5042 9.34912" fill="#D71534"/>
</g>
</g>
</g>
</g>
<path id="Vector_9" d="M0.499512 11.2002H10.79L10.2401 12.1968H0.499512V11.2002Z" fill="#D71534"/>
<path id="Vector_10" d="M0.499512 9.34912H11.8111L11.2613 10.3457H0.499512V9.34912Z" fill="#D71534"/>
<g id="Group_7">
<g id="Clip path group_4">
<mask id="mask3_1745_21544" style="mask-type:luminance" maskUnits="userSpaceOnUse" x="0" y="12" width="10" height="3">
<g id="SVGID_8_">
<path id="Vector_11" d="M9.92587 12.8135H0.499512V14.0474H9.92587V12.8135Z" fill="white"/>
</g>
</mask>
<g mask="url(#mask3_1745_21544)">
<g id="Group_8">
<path id="Vector_12" d="M0.499512 13.0508H9.72949L9.17962 14.0474H0.499512V13.0508Z" fill="#D71534"/>
</g>
</g>
</g>
</g>
<g id="Group_9">
<g id="Clip path group_5">
<mask id="mask4_1745_21544" style="mask-type:luminance" maskUnits="userSpaceOnUse" x="66" y="10" width="11" height="3">
<g id="SVGID_10_">
<path id="Vector_13" d="M76.4995 10.915H66.0912V12.3388H76.4995V10.915Z" fill="white"/>
</g>
</mask>
<g mask="url(#mask4_1745_21544)">
<g id="Group_10">
<path id="Vector_14" d="M76.4995 12.1963H66.2484L66.7982 11.1997H76.4602V12.1963H76.4995Z" fill="#D71534"/>
</g>
</g>
</g>
</g>
<g id="Group_11">
<g id="Clip path group_6">
<mask id="mask5_1745_21544" style="mask-type:luminance" maskUnits="userSpaceOnUse" x="64" y="12" width="13" height="3">
<g id="SVGID_12_">
<path id="Vector_15" d="M76.4995 12.8135H64.913V14.0474H76.4995V12.8135Z" fill="white"/>
</g>
</mask>
<g mask="url(#mask5_1745_21544)">
<g id="Group_12">
<path id="Vector_16" d="M76.4995 14H65.2272L65.777 13.0034H76.4995V14Z" fill="#D71534"/>
</g>
</g>
</g>
</g>
<g id="Group_13">
<g id="Clip path group_7">
<mask id="mask6_1745_21544" style="mask-type:luminance" maskUnits="userSpaceOnUse" x="67" y="9" width="10" height="2">
<g id="SVGID_14_">
<path id="Vector_17" d="M76.4995 9.01709H67.2695V10.4408H76.4995V9.01709Z" fill="white"/>
</g>
</mask>
<g mask="url(#mask6_1745_21544)">
<g id="Group_14">
<path id="Vector_18" d="M67.898 9.34912H76.5388V10.3457H67.3481L67.898 9.34912Z" fill="#D71534"/>
</g>
</g>
</g>
</g>
<path id="Vector_19" d="M63.4204 0L58.7465 8.25763H51.3625L56.0364 0" fill="#D71534"/>
<g id="Group_15">
<g id="Clip path group_8">
<mask id="mask7_1745_21544" style="mask-type:luminance" maskUnits="userSpaceOnUse" x="49" y="9" width="18" height="6">
<g id="SVGID_16_">
<path id="Vector_20" d="M66.8767 9.01709H49.5951V14.0476H66.8767V9.01709Z" fill="white"/>
</g>
</mask>
<g mask="url(#mask7_1745_21544)">
<g id="Group_16">
<path id="Vector_21" d="M50.7341 9.34912C50.7341 9.34912 50.2235 10.2508 49.9879 10.6779C49.1238 12.244 49.87 14.0474 52.7372 14.0474H63.931L66.5625 9.34912" fill="#D71534"/>
</g>
</g>
</g>
</g>
</g>
</g>
<defs>
<clipPath id="clip0_1745_21544">
<rect width="76" height="14" fill="white" transform="translate(0.499512)"/>
</clipPath>
</defs>
</svg>
