<svg width="24" height="24" viewBox="0 0 24 24" fill="none" xmlns="http://www.w3.org/2000/svg">
<path d="M17.1902 22.5C14.7844 22.5 12.8679 20.0126 12.8679 16.9544C12.8679 13.8961 14.8252 11.4087 17.1902 11.4087C19.5553 11.4087 21.5126 13.8961 21.5126 16.9544C21.5126 20.0126 19.5961 22.5 17.1902 22.5ZM17.1902 12.2243C15.233 12.2243 13.6835 14.3447 13.6835 16.9544C13.6835 19.5641 15.2737 21.6845 17.1902 21.6845C19.1068 21.6845 20.697 19.5641 20.697 16.9544C20.7378 14.3447 19.1475 12.2243 17.1902 12.2243Z" fill="#222222"/>
<path d="M17.1903 19.6456C15.3145 19.6456 13.8058 17.6884 13.8058 15.3233C13.8058 14.3039 14.0912 13.3253 14.6213 12.5097L15.3145 12.9583C14.866 13.6107 14.6621 14.4262 14.6621 15.3233C14.6621 17.2398 15.8038 18.8301 17.231 18.8301C18.6582 18.8301 19.8 17.2398 19.8 15.3233C19.8 14.467 19.5961 13.6922 19.1883 13.0398L19.8815 12.5913C20.3708 13.366 20.6563 14.3447 20.6563 15.3233C20.6155 17.6884 19.066 19.6456 17.1903 19.6456Z" fill="#222222"/>
<path d="M17.231 16.1796C16.1708 16.1796 15.2737 15.0786 15.2737 13.733C15.2737 12.7136 15.763 11.8165 16.497 11.4495L16.864 12.1835C16.4154 12.4282 16.0892 13.0398 16.0892 13.733C16.0892 14.6301 16.6193 15.3641 17.231 15.3641C17.8426 15.3641 18.3727 14.6301 18.3727 13.733C18.3727 13.0398 18.0465 12.4282 17.598 12.2243L17.9649 11.4903C18.6989 11.8573 19.1882 12.7544 19.1882 13.733C19.1882 15.0786 18.2912 16.1796 17.231 16.1796Z" fill="#222222"/>
<path d="M17.2311 12.1835C16.2117 12.1835 15.3553 11.3272 15.3553 10.3078C15.3553 9.28836 16.2117 8.43205 17.2311 8.43205C18.2505 8.43205 19.1068 9.28836 19.1068 10.3078C19.1068 11.3272 18.2505 12.1835 17.2311 12.1835ZM17.2311 9.24758C16.6602 9.24758 16.1709 9.7369 16.1709 10.3078C16.1709 10.8786 16.6602 11.368 17.2311 11.368C17.8019 11.368 18.2913 10.8786 18.2913 10.3078C18.2913 9.7369 17.8019 9.24758 17.2311 9.24758Z" fill="#222222"/>
<path d="M18.1689 9.36991L17.7612 8.6767C18.0874 8.47282 18.2913 8.14661 18.2913 7.77962C18.2913 7.20874 17.8019 6.71942 17.2311 6.71942C16.6602 6.71942 16.1709 7.20874 16.1709 7.77962H15.3553C15.3553 6.7602 16.2117 5.90389 17.2311 5.90389C18.2505 5.90389 19.1068 6.7602 19.1068 7.77962C19.1068 8.39127 18.7398 9.00292 18.1689 9.36991Z" fill="#222222"/>
<path d="M7.32233 18.1369C4.95728 18.1369 3 15.6495 3 12.5913C3 9.53301 4.95728 7.04563 7.32233 7.04563C9.68738 7.04563 11.6447 9.53301 11.6447 12.5913C11.6447 15.6495 9.72816 18.1369 7.32233 18.1369ZM7.32233 7.86117C5.40583 7.86117 3.81553 9.98156 3.81553 12.5913C3.81553 15.201 5.40583 17.3214 7.32233 17.3214C9.23884 17.3214 10.8291 15.201 10.8291 12.5913C10.8291 9.98156 9.27961 7.86117 7.32233 7.86117Z" fill="#222222"/>
<path d="M7.32233 15.2825C5.4466 15.2825 3.93787 13.3252 3.93787 10.9602C3.93787 9.94077 4.2233 8.92135 4.7534 8.1466L5.4466 8.59514C4.95728 9.24757 4.7534 10.0631 4.7534 10.9602C4.7534 12.8767 5.89515 14.467 7.32233 14.467C8.74952 14.467 9.89126 12.8767 9.89126 10.9602C9.89126 10.1039 9.68738 9.32912 9.27961 8.67669L9.97282 8.22815C10.4621 9.00291 10.7476 9.98155 10.7476 10.9602C10.7068 13.3252 9.19806 15.2825 7.32233 15.2825Z" fill="#222222"/>
<path d="M7.32239 11.8165C6.2622 11.8165 5.36511 10.7155 5.36511 9.36991C5.36511 8.35049 5.85443 7.4534 6.58841 7.08641L6.9554 7.82039C6.50686 8.06505 6.18065 8.6767 6.18065 9.36991C6.18065 10.267 6.71074 11.001 7.32239 11.001C7.93404 11.001 8.46414 10.267 8.46414 9.36991C8.46414 8.6767 8.13793 8.06505 7.68938 7.86117L8.05637 7.12719C8.79035 7.49418 9.27968 8.39127 9.27968 9.36991C9.27968 10.7155 8.42336 11.8165 7.32239 11.8165Z" fill="#222222"/>
<path d="M7.32238 7.82038C6.30297 7.82038 5.44666 6.96407 5.44666 5.94465C5.44666 4.92524 6.30297 4.06893 7.32238 4.06893C8.3418 4.06893 9.19811 4.92524 9.19811 5.94465C9.23889 7.00485 8.38258 7.82038 7.32238 7.82038ZM7.32238 4.88446C6.75151 4.88446 6.26219 5.37378 6.26219 5.94465C6.26219 6.51553 6.75151 7.00485 7.32238 7.00485C7.89326 7.00485 8.38258 6.51553 8.38258 5.94465C8.42335 5.37378 7.93403 4.88446 7.32238 4.88446Z" fill="#222222"/>
<path d="M8.30102 5.0068L7.89326 4.31359C8.21947 4.10971 8.42335 3.7835 8.42335 3.4165C8.42335 2.84563 7.93403 2.35631 7.36316 2.35631C6.75151 2.31553 6.26219 2.80485 6.26219 3.37573H5.44666C5.44666 2.35631 6.30297 1.5 7.32238 1.5C8.3418 1.5 9.19811 2.35631 9.19811 3.37573C9.23889 4.02816 8.8719 4.63981 8.30102 5.0068Z" fill="#222222"/>
</svg>
